# xmcd
#
# Track frame offsets: 
#        182
#        12247
#        25262
#        39800
#        51627
#        63937
#        76220
#        89640
#        100757
#        114215
#        126557
#        130470
#        141895
#        155005
#        167607
#        178532
#        180582
#        192012
#        204417
#        216872
#        230835
#        235750
#        248862
#        263050
#        276235
#        279990
#        290065
#        300600
#
# Disc length: 4176 seconds
#
# Revision: 0
# Processed by: cddbd v1.5.1PL2 Copyright (c) Steve Scherf et al.
# Submitted via: ExactAudioCopy v0.95b3
#
DISCID=96104e1c
DTITLE=Memphis Minnie - Complete Postwar Recordings- Vol 2 (1946-47)
DYEAR=1991
DGENRE=Blues
TTITLE0=The Man I Love (1-incomplete)
TTITLE1=The Man I Love (2)
TTITLE2=The Man I Love (3)
TTITLE3=The Man I Love (4)
TTITLE4=The Man I Love (5)
TTITLE5=Got To Leave You 2 (1)
TTITLE6=Got To Leave You 2 (2)
TTITLE7=Killer Diller Blues 2
TTITLE8=Moaning Blues 2
TTITLE9=Hold Me Blues 2
TTITLE10=Fish Man Blues (1-incomplete)
TTITLE11=Fish Man Blues (2)
TTITLE12=Fish Man Blues (3)
TTITLE13=Western Union
TTITLE14=My Man Is Gone Again (1)
TTITLE15=My Man Is Gone Again (2-incomplete)
TTITLE16=My Man Is Gone Again (3)
TTITLE17=Lean Meat Won't Fry (1)
TTITLE18=Lean Meat Won't Fry (2)
TTITLE19=Three Times Seven Blues
TTITLE20=Daybreak Blues (1-incomplete)
TTITLE21=Daybreak Blues (2)
TTITLE22=Daybreak Blues (3)
TTITLE23=Million Dollar Blues
TTITLE24=Shout The Boogie (1-incomplete)
TTITLE25=Shout The Boogie (2-incomplete)
TTITLE26=Shout The Boogie (3-incomplete)
TTITLE27=Shout The Boogie (4)
EXTD=
EXTT0=
EXTT1=
EXTT2=
EXTT3=
EXTT4=
EXTT5=
EXTT6=
EXTT7=
EXTT8=
EXTT9=
EXTT10=
EXTT11=
EXTT12=
EXTT13=
EXTT14=
EXTT15=
EXTT16=
EXTT17=
EXTT18=
EXTT19=
EXTT20=
EXTT21=
EXTT22=
EXTT23=
EXTT24=
EXTT25=
EXTT26=
EXTT27=
PLAYORDER=
